PathFileType	4	(X/Y/Z)	C:\Users\dbl\Desktop\20210112\20210112\bx_n_5_901.trc
DataRate	CameraRate	NumFrames	NumMarkers	Units	OrigDataRate	OrigDataStartFrame	OrigNumFrames
50.00	50.00	       6	43	mm	50.00	236	       470
Frame#	Time	Top.Head			R.Acromium			L.Acromium			Sternum			R.ASIS			L.ASIS			V.Sacral			R.Thigh.Upper			R.Thigh.Front			R.Thigh.Rear			R.Knee.Lat			R.Knee.Med			R.Shank.Upper			R.Shank.Front			R.Shank.Rear			R.Ankle.Lat			R.Midfoot.Lat			R.Toe.Lat			R.Toe.Tip			R.Toe.Med			R.Ankle.Med			R.Midfoot.Sup			R.Heel			L.Thigh.Upper			L.Thigh.Front			L.Thigh.Rear			L.Knee.Lat			L.Knee.Med			L.Shank.Upper			L.Shank.Front			L.Shank.Rear			L.Ankle.Lat			L.Midfoot.Lat			L.Toe.Lat			L.Toe.Tip			L.Toe.Med			L.Ankle.Med			L.Midfoot.Sup			L.Heel			origin1 front left			origin2 front right			origin 3 back right			origin 4 back leftt			
		X1	Y1	Z1	X2	Y2	Z2	X3	Y3	Z3	X4	Y4	Z4	X5	Y5	Z5	X6	Y6	Z6	X7	Y7	Z7	X8	Y8	Z8	X9	Y9	Z9	X10	Y10	Z10	X11	Y11	Z11	X12	Y12	Z12	X13	Y13	Z13	X14	Y14	Z14	X15	Y15	Z15	X16	Y16	Z16	X17	Y17	Z17	X18	Y18	Z18	X19	Y19	Z19	X20	Y20	Z20	X21	Y21	Z21	X22	Y22	Z22	X23	Y23	Z23	X24	Y24	Z24	X25	Y25	Z25	X26	Y26	Z26	X27	Y27	Z27	X28	Y28	Z28	X29	Y29	Z29	X30	Y30	Z30	X31	Y31	Z31	X32	Y32	Z32	X33	Y33	Z33	X34	Y34	Z34	X35	Y35	Z35	X36	Y36	Z36	X37	Y37	Z37	X38	Y38	Z38	X39	Y39	Z39	X40	Y40	Z40	X41	Y41	Z41	X42	Y42	Z42	X43	Y43	Z43	

236	4.700	-702.21063	107.94189	1851.50891	-708.39368	-70.22018	1535.12207	-714.45123	289.09525	1543.29041	-609.02637	108.48232	1361.26953	-582.55298	1.92821	1077.14404	-613.17401	246.73944	1068.55969	-806.06732	97.39441	1056.19678	-667.50073	-67.74825	876.07733	-591.62183	-4.62029	805.10651	-690.31323	-58.09028	761.19189	-716.19897	-35.64857	618.59497	-699.37299	71.97322	572.87238	-723.57672	-34.16375	571.06226	-673.53723	12.97016	521.19806	-766.36664	-45.65269	490.07101	-760.20734	-21.96557	207.11697	-648.73218	-69.18368	160.64340	-605.79462	-74.34184	157.23941	-548.36804	-24.25081	162.70685	-600.30530	26.89864	168.65781	-719.59369	67.25552	217.56775	-674.71808	51.53593	161.45447	-793.54651	36.98259	174.28088	-696.72742	287.15823	875.58344	-598.30554	230.33496	794.33307	-704.71930	274.67578	746.01874	-735.41663	255.31241	643.87982	-697.78296	149.99092	576.97412	-737.88721	251.89975	576.91968	-683.30035	211.29199	536.24670	-776.64453	261.33835	502.67526	-769.17126	229.60350	204.78694	-660.43304	298.85800	156.72676	-623.88647	306.67004	158.49501	-556.35425	254.44766	164.26782	-593.02509	218.77751	173.90492	-714.05261	155.85457	218.35422	-676.02826	173.92885	159.48581	-796.73169	180.32701	183.70207	-528.23145	304.24933	146.53639	-517.62323	-72.77020	143.53807	-875.96533	-78.68819	141.28818	-882.48413	296.23334	144.77261	
237	4.720	-699.36438	108.34071	1851.60291	-707.94647	-70.15911	1535.16296	-713.88416	289.11017	1543.24146	-608.79120	108.39983	1361.24634	-582.80554	1.63964	1076.89856	-613.15717	246.80417	1068.55811	-806.22479	97.52551	1056.30286	-667.74805	-67.74809	876.09808	-591.83881	-4.67579	805.08575	-690.53564	-58.06839	761.18079	-716.29822	-35.62177	618.51874	-699.42944	72.00212	572.87476	-723.71552	-34.08696	571.05536	-673.64777	12.97396	521.21527	-766.42358	-45.64708	490.11642	-760.21338	-21.93602	207.10390	-648.73315	-69.18684	160.65822	-605.76312	-74.31126	157.24489	-548.36041	-24.28564	162.68449	-600.28632	26.91143	168.67702	-719.58990	67.27121	217.56540	-674.69830	51.52834	161.45140	-793.49902	37.01034	174.25377	-696.75171	287.15271	875.55499	-598.34674	230.29318	794.26837	-704.76447	274.65253	746.01025	-735.48029	255.38010	643.87805	-697.85510	150.07507	576.92456	-737.99194	251.94221	576.89032	-683.37622	211.27779	536.23914	-776.67218	261.40100	502.60239	-769.16742	229.60300	204.76064	-660.43036	298.87021	156.71950	-623.88947	306.68274	158.49222	-556.33179	254.44806	164.25142	-593.01196	218.76624	173.88589	-714.05035	155.84499	218.36409	-676.03241	173.93088	159.46083	-796.69299	180.34013	183.69576	-528.22839	304.26126	146.54567	-517.65222	-72.74714	143.53278	-875.95825	-78.69993	141.26540	-882.48102	296.23062	144.76953	
238	4.740	-696.32275	108.65752	1851.67859	-707.43433	-70.12106	1535.20447	-713.29016	289.12329	1543.22205	-608.54620	108.34648	1361.23633	-583.15637	1.34470	1076.61963	-613.24445	246.84801	1068.53601	-806.42407	97.62551	1056.42102	-667.99298	-67.75826	876.11584	-592.06085	-4.72579	805.09503	-690.77069	-58.08702	761.17444	-716.36902	-35.63487	618.46802	-699.54810	72.03555	572.89417	-723.83167	-34.03363	571.03131	-673.74048	12.98512	521.25751	-766.46887	-45.66561	490.14734	-760.22357	-21.89666	207.08908	-648.73718	-69.18718	160.66838	-605.72888	-74.27972	157.24396	-548.35565	-24.31439	162.66479	-600.26434	26.92636	168.69724	-719.59503	67.28357	217.56438	-674.69263	51.52176	161.44147	-793.45905	37.02371	174.22058	-696.87512	287.16315	875.54260	-598.49060	230.30579	794.22217	-704.89429	274.60986	745.99945	-735.62958	255.45766	643.89600	-698.00671	150.15211	576.85095	-738.15546	251.99728	576.86951	-683.49719	211.27452	536.23492	-776.75983	261.43698	502.52499	-769.16754	229.59703	204.73932	-660.43140	298.88898	156.70099	-623.89575	306.70740	158.47725	-556.31421	254.45016	164.23083	-593.00549	218.76279	173.86909	-714.06396	155.83952	218.37195	-676.03412	173.94112	159.45322	-796.66797	180.35251	183.68806	-528.23065	304.28046	146.56477	-517.68982	-72.72540	143.51459	-875.94373	-78.71265	141.24974	-882.48572	296.22818	144.76271	
239	4.760	-693.07947	108.87657	1851.73706	-706.85986	-70.10847	1535.25305	-712.66547	289.14032	1543.22668	-608.28156	108.32435	1361.22375	-583.60559	1.04368	1076.30762	-613.42145	246.85687	1068.48291	-806.66602	97.68187	1056.55811	-668.25372	-67.78651	876.12817	-592.29486	-4.79058	805.13342	-691.01971	-58.15255	761.17365	-716.44757	-35.67248	618.44037	-699.73181	72.06189	572.93481	-723.93744	-34.01768	570.99615	-673.82129	13.00074	521.32104	-766.52417	-45.71233	490.16000	-760.23779	-21.85490	207.07607	-648.74408	-69.18156	160.67166	-605.69879	-74.25449	157.23628	-548.35406	-24.33219	162.65266	-600.24213	26.94007	168.71487	-719.61011	67.29643	217.56061	-674.69812	51.51591	161.42755	-793.42987	37.02772	174.18555	-697.10492	287.17700	875.54462	-598.74133	230.35242	794.19171	-705.11920	274.54694	745.98175	-735.86932	255.53494	643.92267	-698.23596	150.21123	576.75690	-738.36731	252.05412	576.84937	-683.66803	211.28967	536.23328	-776.91711	261.43762	502.44748	-769.17261	229.58578	204.72377	-660.43744	298.91028	156.67415	-623.90759	306.74167	158.45042	-556.30487	254.45277	164.20975	-593.00543	218.76839	173.85490	-714.09113	155.84004	218.37401	-676.03546	173.95726	159.46246	-796.66260	180.36034	183.67563	-528.23749	304.30383	146.59018	-517.73053	-72.71101	143.48535	-875.92487	-78.72270	141.24365	-882.49823	296.22589	144.75229	
240	4.780	-689.63129	108.99800	1851.77979	-706.23059	-70.11743	1535.31152	-712.00555	289.16119	1543.25049	-607.98767	108.32720	1361.19312	-584.15350	0.73685	1075.96301	-613.66589	246.82553	1068.39917	-806.95050	97.68611	1056.72021	-668.55530	-67.83655	876.13708	-592.55133	-4.88353	805.18958	-691.28326	-58.26644	761.17896	-716.56244	-35.72042	618.43262	-699.97076	72.07149	572.99445	-724.05182	-34.04719	570.96143	-673.89514	13.01585	521.39783	-766.60895	-45.78575	490.15375	-760.25439	-21.82029	207.06824	-648.75262	-69.16927	160.66829	-605.67798	-74.24033	157.22533	-548.35504	-24.33698	162.65105	-600.22278	26.94997	168.72574	-719.63202	67.31165	217.55205	-674.70996	51.51134	161.41463	-793.41235	37.02961	174.15332	-697.43304	287.18329	875.56012	-599.08398	230.40364	794.17065	-705.43439	274.46649	745.95422	-736.19104	255.60065	643.94476	-698.53510	150.24522	576.65125	-738.61237	252.09979	576.82123	-683.88745	211.32590	536.23151	-777.14288	261.40372	502.37518	-769.18311	229.56975	204.71182	-660.44873	298.93063	156.64322	-623.92621	306.78067	158.41469	-556.30511	254.45438	164.19267	-593.00928	218.78116	173.84482	-714.12640	155.84753	218.36632	-676.03662	173.97577	159.48589	-796.67761	180.36247	183.65540	-528.24646	304.32919	146.61653	-517.76837	-72.70770	143.45160	-875.90497	-78.72713	141.24506	-882.51636	296.22327	144.73993	
241	4.800	-685.97705	109.03428	1851.80603	-705.55560	-70.13904	1535.37915	-711.30566	289.17972	1543.29004	-607.65863	108.34291	1361.13281	-584.80017	0.42450	1075.58594	-613.95709	246.75377	1068.29565	-807.27637	97.63608	1056.91052	-668.92200	-67.90866	876.14697	-592.84332	-5.00893	805.24658	-691.56604	-58.42230	761.18958	-716.73047	-35.77024	618.44049	-700.24805	72.05901	573.06335	-724.19598	-34.12307	570.94080	-673.96844	13.02382	521.47760	-766.73706	-45.87799	490.12976	-760.27063	-21.80119	207.06749	-648.76099	-69.15224	160.66034	-605.66876	-74.23859	157.21608	-548.35687	-24.33053	162.65953	-600.20959	26.95433	168.72610	-719.65356	67.32737	217.54041	-674.72363	51.50929	161.40730	-793.40552	37.03585	174.12836	-697.83881	287.17450	875.58777	-599.49036	230.43077	794.15228	-705.82056	274.37354	745.91644	-736.57550	255.64459	643.95184	-698.89087	150.25040	576.54767	-738.87897	252.12213	576.78088	-684.14880	211.37766	536.22632	-777.42505	261.34592	502.31430	-769.19916	229.54951	204.69965	-660.46497	298.94827	156.61292	-623.95020	306.81863	158.37430	-556.31390	254.45389	164.18332	-593.01337	218.79692	173.84093	-714.16309	155.86098	218.34747	-676.03619	173.99261	159.51924	-796.70892	180.36029	183.62718	-528.25378	304.35510	146.63837	-517.79816	-72.71546	143.42279	-875.88666	-78.72459	141.24945	-882.53571	296.21970	144.72830	
